<?xml version="1.0" encoding="utf-8"?>
<!-- Generator: Adobe Illustrator 19.0.0, SVG Export Plug-In . SVG Version: 6.00 Build 0)  -->
<svg version="1.1" id="layer" xmlns="http://www.w3.org/2000/svg" xmlns:xlink="http://www.w3.org/1999/xlink" x="0px" y="0px"
	 viewBox="-153 -46 652 652" style="enable-background:new -153 -46 652 652;" xml:space="preserve">
<style type="text/css">
	.st0{fill:#003D90;}
	.st1{fill:#39B6B8;}
	.st2{fill:#FECF44;}
	.st3{fill:#BEE2E6;}
	.st4{fill:#C99E64;}
	.st5{fill:#D5EDF1;}
	.st6{fill:#F6AF81;}
	.st7{fill:#F9C39C;}
	.st8{fill:#8F3D1A;}
	.st9{fill:#A4D8E3;}
	.st10{fill:#FFFFFF;}
</style>
<rect id="XMLID_96_" x="-131.2" y="385.4" class="st0" width="600" height="51.4"/>
<path id="XMLID_199_" class="st0" d="M214.7,206.1l3,128.4h-24.4l-0.6-51.3c-0.1-11.6,0.3-26.5,0.3-33.5h-0.4
	c-1,8.4-3.1,18.7-5.3,28.4l-8,36.4h-23.7l-7.3-36.2c-1.9-8.9-4-22-4.9-28.2h-0.2c0.2,7.3,0.2,22.9,0,31.6l-0.8,52.7h-20.9l2.9-112
	c-3-0.2-7.6-0.9-10.5-2v-14.4h39.9l9.3,44.6c2,9.6,4.6,21.4,6.1,31.3h0.2c1.6-8.4,4-22.4,6.2-31.7l9.9-44.2H214.7 M219.3,201.3
	h-37.7l-0.8,3.7l-9.8,44.2c-0.6,2.3-1.1,5-1.7,7.7c-0.1-0.6-0.1-1.2-0.3-1.8c-0.5-1.9-0.9-3.7-1.2-5.5l-9.5-44.6l-0.7-3.8h-48.5
	v22.4l3,1.2c2.1,0.8,4.7,1.4,7.3,1.8l-2.7,107.7l-0.1,4.9H147l0.1-4.7l0.6-35.1l3.2,15.9l0.9,3.8h31.4l0.9-3.7l4.2-19.2l0.4,38.2
	v4.7h34l-0.2-4.8l-3-128.4L219.3,201.3z"/>
<path id="XMLID_98_" class="st0" d="M270.1,292.6c-3.2,0-6,0-9.3-0.2V340h-24.7V220c-3.3-0.2-7.5-0.9-10.5-2.1V203
	c10.8-1.3,26.1-2.4,40.4-2.4c19.9,0,40.3,8.5,40.3,45.7C306.4,278.7,288.9,292.6,270.1,292.6 M267.5,223c-2.3,0-4.5,0-6.8,0.4V271
	c1.6,0.2,3.5,0.4,5.2,0.4c11.7,0,16.1-11.1,16.1-24.5C282,235.2,278.4,223,267.5,223 M353.2,292.6c-3.2,0-6,0-9.3-0.2V340h-24.7V220
	c-3.3-0.2-7.5-0.9-10.5-2.1V203c10.8-1.3,26.1-2.4,40.4-2.4c19.9,0,40.3,8.5,40.3,45.7C389.5,278.7,372,292.6,353.2,292.6
	 M350.7,223c-2.1,0-4.5,0-6.7,0.4V271c1.6,0.2,3.4,0.4,5.2,0.4c11.7,0,16.1-11.1,16.1-24.5C365.1,235.2,361.6,223,350.7,223
	 M427.7,340V201.5h-35.1v14.9c2.9,1.1,7.5,1.9,10.5,2.1V340"/>
<polyline id="XMLID_88_" class="st1" points="428.5,172.4 410.7,160.3 393.1,172.4 393.1,190.7 428.5,190.7 "/>
<polyline id="XMLID_87_" class="st2" points="16.4,341.1 16.4,210.2 92,183.5 92,367.3 "/>
<path id="XMLID_188_" class="st0" d="M89.5,186.8V364l-70.7-24.5V211.8 M94.3,180.1l-80.2,28.4v134.3l80.2,27.8V180.1z"/>
<polyline id="XMLID_84_" class="st3" points="-0.1,341.1 -0.1,210.2 75.5,183.5 75.5,367.3 "/>
<path id="XMLID_184_" class="st0" d="M73,186.8V364L2.3,339.4V211.8 M77.8,180.1l-80.2,28.4v134.3l80.2,27.8V180.1z"/>
<polyline id="XMLID_81_" class="st1" points="-27.9,341.1 -27.9,210.2 47.5,183.5 47.5,367.3 "/>
<path id="XMLID_180_" class="st0" d="M45.2,186.8V364l-70.9-24.5V211.8 M49.9,180.1l-80.3,28.4v134.3l80.3,27.8V180.1z"/>
<path id="XMLID_176_" class="st0" d="M-63.9,360.1c-1,0-2-0.3-2.9-1l-6-4.6c-1.2-0.9-1.9-2.2-1.9-3.6s0.6-2.8,1.6-3.7l16.5-16.3
	c-2.4,0-4.5-1.9-4.6-4.4l-0.1-1.3l-3.9,2.9c-1.2,0.8-2.6,1.2-3.9,0.8c-1.3-0.3-2.3-1.1-3-2.2c-0.6,0.3-1.1,0.5-1.7,0.7l-5.3,24.1
	c-0.4,1.7-1.6,3-3.3,3.5c-1.4,0.4-3,0.1-4.1-0.8l-6-2.3c-1.7-0.7-3-2.4-3-4.4l-0.4-30.8c0-2,1.2-3.7,3-4.5l2.6-1.1
	c0.6-0.2,1.1-0.3,1.9-0.3l4.3-0.7c1-0.4,2.1-0.6,3.3-0.6l-0.7-1.5c-1.2-2.1-0.6-4.6,1.3-6l8.2-6.1c1.1-0.8,2.4-1.1,3.7-0.9
	c0.4,0.1,0.9,0.2,1.3,0.4l4.5-3.9l-3.6-39.4l-1.6-0.1h-15.8c-1.7,0-3.3-0.9-4-2.4c-0.8-1.5-0.8-3.3,0-4.8l1.3-2.3v-0.4
	c-0.3-1.8,0.4-3.5,1.9-4.6l2.6-1.9c0.3-0.2,0.6-0.4,0.8-0.5c0.6-0.7,1.3-1.2,2.2-1.5l2.9-0.9c1.3-0.4,2.7-0.2,3.9,0.4l0.9-2.9
	L-93,217.7c-1.1-0.6-2-1.7-2.3-3c-0.3-1.2-0.1-2.6,0.6-3.6l0.3-0.5c-0.8-1.4-1-3.2-0.3-4.8l4.6-9.2c0.6-1.2,1.7-2.1,3-2.4
	c1.1-0.4,2.6-0.2,3.7,0.5l3.7,2.3l18.6-22.4c0.6-0.7,1.3-1.1,2-1.4c-3.6-3.1-5.9-7.8-5.9-12.9v-26.5c-2.4-0.5-5-1.6-5.6-4.7
	c-0.6-2.5,0.6-4.4,2.3-5.8l-0.1-0.3c-1.2-1.4-1.4-3.3-0.6-4.9c0.7-1.6,2.2-2.7,4-2.8c0,0,0.9-0.1,2.3-0.1c2.4,0,4.5,0.2,6.2,0.5
	c0.3-0.2,0.4-0.4,0.6-0.6c1.2-1,2.6-1.5,4-1.3c1.6,0.2,3.6,0.6,5.4,1.3c0.2-0.1,0.2-0.1,0.3-0.2c1-1.1,2.6-1.6,4-1.3
	c3.6,0.6,10,3.6,12.2,11.2c1.2,3.6,1,7.9,0.6,11.8c2.2,1.3,3.6,3.7,3.6,6.5v10.5c0,3.2-2,6-4.9,7v12.3h5.6c1.2,0,2.2,0.4,2.9,1
	l2.4,0c0.3,0,0.6,0,0.8,0.1l38.3,6.9c1.9,0.3,3.4,1.9,3.7,3.8l0.6,2.8c0.7,0.5,1.3,1.2,1.7,2c0.4,1.3,0.4,2.7-0.2,4L20,204.2
	c-1.2,2.2-3.7,3.2-6,2.3l-1-0.4l-14.5,4.6c0.1,1.3-0.3,2.6-0.9,3.8l0.4,2.4l3.2,4.1c0.9,1.3,1.1,3,0.6,4.6l-1.3,3.2
	c-0.3,0.7-0.7,1.3-1.2,1.8c0.3,0.7,0.6,1.5,0.6,2.4c0,2.6-2.2,4.7-4.7,4.7c-0.3,0-0.4,0-0.6,0l-0.6-0.1c-0.6,1.8-2.3,3.1-4.4,3.1
	c-0.3,0-0.7,0-1-0.1l-3.4-0.8l-0.4,9.1c0,0.5-0.1,1.1-0.3,1.5l-6,49.7c-0.1,1.7-1.3,3.1-2.7,3.8l-10.2,5l0.2,3.3
	c1.3,0.8,2.1,2.2,2.3,3.8l0.7,9.6c0,0.3,0.1,0.6,0.1,1c0,2.4-1.8,4.3-4,4.7l1.6,3.7c0.3,0.6,0.4,1.2,0.4,1.9l0.3,1.9
	c0.4,1.9-0.4,3.9-2.2,4.9l-26.4,16C-62.2,359.8-63.1,360.1-63.9,360.1 M-46.4,329.9c0.7,1.8,0.3,3.9-1,5.2l-12.3,12.1L-43,337
	l-2.2-4.8c-0.1-0.4-0.3-0.9-0.4-1.4c-0.3-0.6-0.4-1.2-0.4-1.8l-0.1-2.4c-0.1-1.3,0.3-2.6,1.3-3.6c0.9-1,2.2-1.5,3.4-1.5l0.3,0
	l-0.1-1.4c-1.4-0.8-2.6-2.3-2.6-4.1l-0.1-10c0-1.8,1-3.5,2.6-4.3l10.8-5.3l5.7-48.3c0.1-0.3,0.1-0.5,0.3-0.8l0.7-17.3
	c0-1.4,0.7-2.7,1.7-3.5l-1.2-3.7c-0.1-0.5-0.3-1.1-0.3-1.7l0.1-0.4c0-2.4,1.9-4.3,4.3-4.5l0.2,0c0.6,0,1.2,0,1.7,0.1
	c0.4-0.2,1-0.4,1.6-0.4l1.4-0.1c0.6-0.1,1.2,0,1.7,0.1c0.3-0.1,0.4-0.2,0.7-0.3l-0.3-1.6c-0.1-0.9,0-1.9,0.3-2.7
	c-0.6-0.7-1.1-1.5-1.3-2.5v-0.4l-3.2,1.3c-1.6,0.6-3.1,0.4-4.6-0.5c-1.3-0.9-2-2.5-2-4.1l0.6-11.8c0-1.3,0.6-2.5,1.6-3.3
	c0.8-0.8,2.1-1.3,3.4-1.2l14.3,0.9c0.9,0.1,1.7,0.3,2.4,0.8l4.7,1.9c1.7,0.7,2.9,2.4,3,4.4c0,0.4-0.1,0.8-0.3,1.2l4.7-1.5
	c0.6-0.2,1.2-0.2,1.6-0.2l1.9-3.6c-0.1-0.3-0.1-0.6-0.3-0.9l-0.4-2.2l-34.6-6.2l-5-0.1c-1,0-2-0.4-2.7-1h-0.7
	c-0.9,0.6-1.8,0.9-2.9,0.9l-3.9-0.1c-2.6,0-4.7-2.1-4.7-4.7v-23.2c0-2,1.3-3.8,3.3-4.5c0.4-0.2,1-0.3,1.6-0.2v-4.7
	c-0.7,0-1.4-0.2-2.2-0.6c-1.8-1-2.7-3.2-2.3-5.2c1.3-5.2,1.4-9.9,0.7-12.5c-0.1-0.6-0.4-1.1-0.7-1.5c-0.8,0.8-2,1.3-3.3,1.3
	c-1.1,0-2.7-0.4-4.2-2.2c-0.3-0.1-0.4-0.3-0.8-0.4c-0.2,0.6-0.6,1.1-0.9,1.6c-1,1-2.3,1.7-3.7,1.7c-1.1,0-2.6-0.4-3.9-1.9
	c0,0.1,0,0.2-0.1,0.2c0.9,0.9,1.2,2,1.2,3.1v31c0,3.9,3,7.2,6.9,7.6c0.6,0.1,1.3,0.1,2.1-0.1c1.5-0.2,2.7,0.1,3.9,1.1
	c1,0.9,1.6,2.2,1.6,3.6v5.8c0,1.3-0.4,2.5-1.3,3.4c-1,0.9-2.1,1.3-3.4,1.4l-3-0.1c-1,0-1.9-0.3-2.6-0.7h-1.3
	c-0.8,0.5-1.7,0.7-2.6,0.7l-0.4,0L-75,206.2c-1.6,1.8-4.1,2.2-6.2,1l-2.9-1.7l-0.6,1.1c1.3,1.5,1.6,3.7,0.6,5.4l7.9,4.6
	c-0.3-1-0.1-2.1,0.3-3.1l2-3.8c0,0-0.2-0.1-0.2-0.2c-0.1-1.5,0.5-2.9,1.5-3.9l8.2-8.1c1.3-1.4,3.4-1.7,5.2-1
	c1.9,0.8,2.9,2.5,2.9,4.4l-0.3,20.6c-0.2,1.7-1,3.2-2.4,4c-0.7,0.4-1.6,0.6-2.4,0.6c0.4,1,0.4,2.1,0.1,3.2l-3.9,13.4l1.8,0.1
	c0.6-0.2,1.2-0.2,1.9-0.2c2.4,0.2,4.3,2.3,4.3,4.8v0.8v0.3l4,44.6c0.1,1.5-0.4,3-1.6,4l-9.9,8.7c-1,0.9-2.4,1.3-3.9,1.1
	c-0.6-0.1-1.1-0.3-1.7-0.6l-1.3,1l1.4,2.5c0.6,1.1,0.6,2.5,0.3,3.7c-0.4,1.2-1.3,2.2-2.4,2.8l-2.4,1.2c0.9-0.4,1.7-0.8,2.9-1.2
	c1.7-0.8,3.9-0.4,5.2,1l2.7-1.9c0-0.3,0-0.5,0.1-0.7c0.3-1.3,1.1-2.4,2.4-3l2-1c0.1-0.1,0.3-0.2,0.4-0.2c0.1-0.1,0.3-0.2,0.6-0.2
	l0.1-0.1c1.4-0.7,3.1-0.7,4.4,0.1c1.4,0.8,2.3,2.2,2.4,3.8c0.2,1.2-0.3,2.4-1,3.4l0.3,4.1l0.9,0c2.6,0,4.6,2.1,4.7,4.7v0.4V329.9
	 M-86.4,320l0.1,19.7l3.8-16.8c0.1-0.8,0.6-1.5,1-2.1c0.6-0.7,1.3-1.2,2.2-1.5c-0.6,0-1.1,0-1.7-0.2c-0.3,0.1-0.6,0.2-1,0.3
	L-86.4,320z"/>
<polyline id="XMLID_75_" class="st4" points="-51,334.6 -69.9,350.7 -63.9,355.3 -37.5,339.3 -38.1,336.5 "/>
<polyline id="XMLID_74_" class="st5" points="-50.7,331.7 -69.8,350.6 -63.8,352.4 -38,336.6 -41.3,329.2 "/>
<path id="XMLID_73_" class="st6" d="M-41.3,328.6l-0.3-3.7l-9.6,0.7v5.1c0.3,2.1,2.7,3.6,5.6,3.4c2.8-0.2,5-2,4.7-4.1
	C-40.8,329.5-41,329-41.3,328.6"/>
<polyline id="XMLID_72_" class="st4" points="-80.1,325.4 -83.7,350.1 -90.9,347.4 -91.3,316.6 -88.6,315.5 "/>
<polyline id="XMLID_71_" class="st5" points="-77.8,323.8 -83.7,350.3 -88.5,345.7 -88.6,315.6 -80.8,314.4 "/>
<path id="XMLID_70_" class="st6" d="M-68.1,319.7l-4.9-8.4l-6.7,3.3c-1.3-0.5-2.6-0.4-3.5,0.4c-1.6,1.3-1.3,4.2,0.7,6.5
	c1.3,1.6,3.1,2.4,4.6,2.3v0l0.1,0C-77.1,323.7-68.1,319.7-68.1,319.7"/>
<path id="XMLID_69_" class="st6" d="M-33.2,140.3c-0.8,0-1.6,0.4-2.1,1v-9.7l-13.9-1.9l-10.9-1.5v32c0,6.4,4.9,11.6,11,12.3
	c0.4,0,1,0.1,1.4,0.1c0.7,0,1.5-0.1,2-0.2v8.9l4.9,15.2l5.4-15.2v-26.2c0.6,0.6,1.3,1.1,2.1,1.1c1.6,0,2.7-1.2,2.7-2.7V143
	C-30.5,141.5-31.7,140.3-33.2,140.3"/>
<polyline id="XMLID_68_" class="st5" points="18.4,185.3 -20.1,178.2 -57.5,178 -82.6,207.7 -75.5,214.9 -51.6,191.3 7.2,194.9 
	19.8,192.7 "/>
<path id="XMLID_67_" class="st7" d="M-33.2,140.3c-0.8,0-1.6,0.4-2.1,1v-9.7l-13.9-1.9l-3.5,23.7l4.6,0.6l-1,18.6
	c0.4,0,1,0.1,1.4,0.1c0.7,0,1.5-0.1,2-0.2v8.9l4.9,15.2l5.4-15.2v-26.2c0.6,0.6,1.3,1.1,2.1,1.1c1.6,0,2.7-1.2,2.7-2.7V143
	C-30.5,141.5-31.7,140.3-33.2,140.3"/>
<path id="XMLID_66_" class="st8" d="M-35.8,143.8l-2.4,1.4l-0.6-10.7c0,0-8.8-5.3-21.4-5.2c-12.5,0.1-0.9-4.7-0.9-4.7l-3.6-4.7
	c0,0,10-0.6,11.5,2.4c1.5,3,0.6-3.9,0.6-3.9s7.3,1.2,9,3.5c1.7,2.3,0.7-3.7,0.7-3.7s6.4,1.1,8.5,7.8
	C-32.4,132.9-35.8,143.8-35.8,143.8"/>
<polyline id="XMLID_65_" class="st9" points="-39,323.5 -55,325.4 -61.9,248.8 -40.3,247 "/>
<polyline id="XMLID_64_" class="st3" points="-56.5,326 -36.1,326.3 -36.8,316.1 -57.3,314.2 "/>
<polyline id="XMLID_63_" class="st6" points="-65.5,246.7 -81.8,241.4 -79.3,239.5 -63.2,244.4 "/>
<polyline id="XMLID_62_" class="st6" points="-67.5,247.2 -77.5,238.2 -74.7,237.3 -64.6,245.8 "/>
<polyline id="XMLID_61_" class="st7" points="-58,223.4 -86.4,206.9 -90.7,213.6 -65.8,228 -70.5,244.1 -81.8,244.3 -83.7,247.3 
	-67.8,247.3 -61.9,247.6 -58.2,223.6 -58.3,223.6 "/>
<polyline id="XMLID_60_" class="st3" points="-25.1,191.1 -25.1,177.6 -31.4,177.6 -31.4,191.1 -48.7,191.1 -48.7,177.6 -55,177.6 
	-55,191.1 -60.9,191.1 -61.9,248.9 -43.4,258 -43.4,280.7 -43.3,280.7 -72.1,306.1 -61.8,317 -26.3,299.4 -26.3,299.3 -26.3,299.4 
	-20.2,248.6 -20.1,248.5 -17.6,191.1 "/>
<polyline id="XMLID_59_" class="st9" points="-68.5,209.4 -85.9,198.8 -90.4,207.9 -73.8,220 "/>
<polyline id="XMLID_58_" class="st9" points="-58.5,317 -69.4,299.7 -77.5,305.8 -68.1,324.2 "/>
<polyline id="XMLID_57_" class="st9" points="-25.4,204.3 -57,204 -55.7,198.2 -26.8,197.8 "/>
<path id="XMLID_56_" class="st10" d="M-49.6,161.3c-2.6,0-5-0.9-6.8-2.4c1.2,3.4,4.2,5.7,7.7,5.7c4.6,0,8.5-4.1,8.5-9.2v0
	C-41.7,158.8-45.3,161.3-49.6,161.3"/>
<polyline id="XMLID_55_" class="st9" points="-19.6,242.7 -61.3,242.3 -61.6,236.5 -19.3,236.4 "/>
<polyline id="XMLID_54_" class="st6" points="-22.2,215.8 -27.2,227.4 -30.1,224.1 -24.1,211.1 "/>
<polyline id="XMLID_53_" class="st7" points="-8.4,207.9 14.8,200.4 5.2,195.6 -26.5,208.9 -25.1,213.2 -24.8,213.1 -23.9,215.5 
	-24.1,215.6 -17.9,233.9 -14.6,234.7 -18.9,220.9 -18.6,220.9 -13.7,235.1 -10.4,235.9 -15.3,220.6 -13.9,220.5 -8.3,232.5 
	-4.8,232.9 -10.6,220.1 -9.3,220 -3.8,227 -2.7,223.7 -6.4,218.8 "/>
<path id="XMLID_52_" class="st0" d="M-43.4,145.6c0,1-0.9,1.8-1.9,1.8c-1.2,0-2-0.8-2-1.8c0-1,0.8-1.8,2-1.8
	C-44.3,143.8-43.4,144.6-43.4,145.6"/>
<path id="XMLID_51_" class="st0" d="M-53.8,145.6c0,1-0.8,1.8-2,1.8c-1,0-1.9-0.8-1.9-1.8c0-1,0.9-1.8,1.9-1.8
	C-54.6,143.8-53.8,144.6-53.8,145.6"/>
<path id="XMLID_50_" class="st8" d="M-45,138.3c0.7,0,1.4,0.3,1.9,0.8v-0.4c0-1-0.9-1.8-2-1.8c-1,0-1.8,0.8-1.8,1.8
	c0,0.2,0,0.4,0.1,0.6C-46.4,138.7-45.7,138.3-45,138.3"/>
<path id="XMLID_49_" class="st8" d="M-55.6,138.3c0.7,0,1.3,0.3,1.7,0.8c0.1-0.1,0.1-0.3,0.1-0.4c0-1-0.8-1.8-2-1.8
	c-1,0-1.9,0.8-1.9,1.8c0,0.2,0,0.4,0.1,0.6C-57,138.7-56.5,138.3-55.6,138.3"/>
<polyline id="XMLID_48_" class="st9" points="15.7,202.1 -3.3,194.5 1.3,185.4 21,191.4 "/>
<path id="XMLID_97_" class="st10" d="M-110,414.5h-2.9v11.7h-4.6v-30h7.5c5.5,0,7.7,2.8,7.7,9.1C-102.2,411.4-104.2,414.5-110,414.5
	 M-109.8,400.4h-3v9.8h3c2.4,0,2.9-2.2,2.9-4.9C-106.9,402.7-107.4,400.4-109.8,400.4 M-86.4,426.2v-4.2h-7.9v-25.7H-99v30
	 M-71.7,426.2l-1.3-5.9h-6.9l-1.2,5.9h-5l7.3-30h4.6l7.3,30 M-76.4,403.4L-79,416h5.2L-76.4,403.4z M-50.6,427.1l-2.4-2.1
	c-1.1,0.9-2.6,1.4-4.6,1.4c-2.9,0-4.6-1.1-5.9-2.5c-2.2-2.5-2.2-6.9-2.2-12.8c0-5.9,0-10.3,2.2-12.8c1.3-1.4,3-2.5,5.9-2.5
	c2.9,0,4.6,1.1,5.7,2.5c2.3,2.5,2.3,6.9,2.3,12.8c0,4.9,0,8.6-1.3,11.2l2.4,2.1 M-55.3,401.2c-0.4-0.7-1.2-1.1-2.3-1.1
	c-1.2,0-1.9,0.5-2.3,1.1c-0.9,1.4-1,4.4-1,9.9c0,5.5,0.1,8.5,1,9.9c0.4,0.7,1.1,1.1,2.3,1.1c0.4,0,0.7,0,1-0.2l-1.6-1.3l2.2-2.6
	l1.3,1c0.3-1.6,0.4-3.9,0.4-8C-54.3,405.7-54.4,402.7-55.3,401.2 M-33.2,424.3c1.3-1.3,2-3.2,2-5.5v-22.6h-4.7V419
	c0,2.2-1.3,3.2-2.9,3.2c-1.6,0-2.9-1-2.9-3.2v-22.9h-4.7v22.6c0,2.3,0.7,4.2,2,5.5c1.4,1.5,3.4,2.2,5.6,2.2
	C-36.5,426.5-34.7,425.8-33.2,424.3 M-14.6,426.2v-4.2h-7.9v-8.7h6.8v-4.3h-6.8v-8.5h7.9v-4.2h-12.6v30 M8.8,423.7
	c-1.3,1.4-3,2.5-5.9,2.5h-7.6v-30h7.6c2.9,0,4.6,1.1,5.9,2.5c2.2,2.5,2.2,6.8,2.2,12.5S10.9,421.2,8.8,423.7 M5.2,401.7
	c-0.4-0.7-1.3-1.2-2.4-1.2H0v21.5h2.7c1.1,0,2-0.5,2.4-1.2c0.9-1.4,1-4.4,1-9.6C6.2,405.9,6.1,403.1,5.2,401.7 M26.8,426.2v-4.2
	h-7.7v-8.7h6.8v-4.3h-6.8v-8.5h7.7v-4.2H14.4v30 M44.4,414.5h-2.7v11.7h-4.7v-30h7.5c5.4,0,7.7,2.8,7.7,9.1
	C52.1,411.4,50.1,414.5,44.4,414.5 M44.5,400.4h-2.9v9.8h2.9c2.6,0,2.9-2.2,2.9-4.9C47.4,402.7,47.1,400.4,44.5,400.4 M67.9,426.2
	v-4.2h-7.7v-25.7h-4.7v30 M82.6,426.2l-1.3-5.9h-6.9l-1.2,5.9h-5l7.3-30h4.6l7.3,30 M80.5,394.2l-2.6-3.5l-2.4,3.5H72l4.2-5.9h3.6
	l4.1,5.9H80.5z M77.9,403.4L75.3,416h5.2L77.9,403.4z M102.6,400.4v-4.2H87.8v4.2h5v25.7h4.7v-25.7 M116.5,426.2l-3.9-12.3h-2.7
	v12.3h-4.7v-30h7.6c5.5,0,7.7,2.7,7.7,8.8c0,3.7-0.9,6.4-3.6,7.9l4.4,13.3 M112.7,400.4h-2.9v9.2h2.9c2.6,0,3-2.1,3-4.6
	C115.8,402.6,115.3,400.4,112.7,400.4 M137.1,426.2v-4.2h-7.9v-8.7h6.7v-4.3h-6.7v-8.5h7.9v-4.2h-12.6v30 M145.9,416.2h8.5v-4.2
	h-8.5V416.2z M312,426.2h4.7v-30H312V426.2z M333.4,424.5c1.6-1.5,1.9-3.5,1.9-6.6c0-5.1-0.9-7-4.5-8.4l-3.6-1.4
	c-2.2-0.8-2.4-1.6-2.4-4c0-1.3,0.3-2.3,0.7-2.9c0.6-0.5,1.1-0.8,2-0.8c1,0,1.7,0.3,2.2,0.9c0.7,0.8,0.7,1.9,0.7,3.2h4.7
	c0-2.9-0.6-5-2.2-6.5c-1.2-1.2-3-1.8-5.3-1.8c-2.2,0-3.9,0.7-5.2,1.8c-1.7,1.5-2.4,3.7-2.4,6.4c0,4.6,1.2,6.3,4.2,7.5l3.6,1.5
	c2.3,1,2.9,1.7,2.9,4.9c0,1.6-0.3,2.6-0.9,3.3c-0.4,0.5-1.2,0.8-2.3,0.8c-1,0-1.7-0.3-2.2-0.8c-0.7-0.8-0.8-1.8-0.8-3.4h-4.7
	c0,3.1,0.6,5,2,6.4c1.1,1.3,3.1,2,5.7,2C330.3,426.5,332.2,425.7,333.4,424.5 M351.7,424c-1.3,1.4-2.9,2.5-5.7,2.5
	c-2.9,0-4.6-1.1-5.9-2.5c-2.3-2.5-2.2-6.9-2.2-12.8c0-5.9-0.1-10.3,2.2-12.8c1.3-1.4,3-2.5,5.9-2.5c2.9,0,4.4,1.1,5.7,2.5
	c2.3,2.5,2.2,6.9,2.2,12.8C353.8,417.1,354,421.4,351.7,424 M348.1,401.2c-0.4-0.7-1.2-1.1-2.1-1.1c-1.2,0-1.9,0.5-2.3,1.1
	c-0.8,1.4-1,4.5-1,9.9c0,5.5,0.1,8.5,1,9.9c0.4,0.7,1.2,1.1,2.3,1.1c1,0,1.7-0.5,2.1-1.1c1-1.4,1-4.5,1-9.9
	C349.1,405.7,349.1,402.7,348.1,401.2 M369.9,426.2v-4.2H362v-25.7h-4.7v30 M384.5,426.2l-1.2-5.9h-7l-1.1,5.9h-4.9l7.3-30h4.6
	l7.3,30 M379.9,403.4l-2.6,12.6h5.2L379.9,403.4z M404.6,400.4v-4.2h-14.8v4.2h5v25.7h4.7v-25.7 M407.2,426.2h4.7v-30h-4.7V426.2z
	 M429.1,424c-1.3,1.4-3,2.5-5.9,2.5c-2.9,0-4.4-1.1-5.7-2.5c-2.3-2.5-2.3-6.9-2.3-12.8c0-5.9,0-10.3,2.3-12.8
	c1.3-1.4,2.9-2.5,5.7-2.5c2.9,0,4.6,1.1,5.9,2.5c2.2,2.5,2.2,6.9,2.2,12.8C431.3,417.1,431.3,421.4,429.1,424 M425.5,401.2
	c-0.4-0.7-1.1-1.1-2.3-1.1s-1.7,0.5-2.2,1.1c-0.8,1.4-1.1,4.5-1.1,9.9c0,5.5,0.3,8.5,1.1,9.9c0.4,0.7,1,1.1,2.2,1.1s1.9-0.5,2.3-1.1
	c0.9-1.4,1-4.5,1-9.9C426.5,405.7,426.4,402.7,425.5,401.2 M450.6,426.2v-30h-4.7V414l-7-17.8h-4.1v30h4.7v-17.8l7,17.8
	 M294.6,416.2h8.6v-4.2h-8.6V416.2z M170.7,414.5H168v11.7h-4.7v-30h7.5c5.4,0,7.7,2.8,7.7,9.1C178.4,411.4,176.4,414.5,170.7,414.5
	 M170.8,400.4H168v9.8h2.9c2.6,0,2.9-2.2,2.9-4.9C173.7,402.7,173.4,400.4,170.8,400.4 M194.4,426.2v-4.2h-7.9v-25.7h-4.7v30
	 M209,426.2l-1.2-5.9h-7l-1.1,5.9h-5l7.5-30h4.6l7.2,30 M204.2,403.4l-2.4,12.6h5L204.2,403.4z M228.5,400.4v-4.2h-12.6v30h4.7v-13
	h6.7v-4.3h-6.7v-8.5 M244.4,424c-1.3,1.4-2.9,2.5-5.7,2.5c-2.9,0-4.6-1.1-5.9-2.5c-2.2-2.5-2.2-6.9-2.2-12.8c0-5.9,0-10.3,2.2-12.8
	c1.3-1.4,3-2.5,5.9-2.5c2.9,0,4.5,1.1,5.7,2.5c2.3,2.5,2.3,6.9,2.3,12.8C246.7,417.1,246.7,421.4,244.4,424 M241,401.2
	c-0.4-0.7-1.2-1.1-2.3-1.1c-1.1,0-1.9,0.5-2.3,1.1c-0.9,1.4-1,4.5-1,9.9c0,5.5,0.1,8.5,1,9.9c0.4,0.7,1.2,1.1,2.3,1.1
	c1.1,0,1.9-0.5,2.3-1.1c0.9-1.4,1-4.5,1-9.9C242,405.7,241.8,402.7,241,401.2 M266.1,426.2v-30h-4.7V414l-7-17.8H250v30h4.7v-17.8
	l7.2,17.8 M283.7,423.7c-1.3,1.4-3,2.5-5.9,2.5h-7.6v-30h7.6c2.9,0,4.6,1.1,5.9,2.5c2.2,2.5,2.2,6.8,2.2,12.5
	S285.8,421.2,283.7,423.7 M280.1,401.7c-0.4-0.7-1.3-1.2-2.4-1.2h-2.7v21.5h2.7c1.2,0,2-0.5,2.4-1.2c0.9-1.4,1-4.4,1-9.6
	C281.1,405.9,281,403.1,280.1,401.7"/>
</svg>
